<svg xmlns="http://www.w3.org/2000/svg" xmlns:xlink="http://www.w3.org/1999/xlink" width="24" height="24" preserveAspectRatio="xMidYMid meet" viewBox="0 0 24 24" style="-ms-transform: rotate(360deg); -webkit-transform: rotate(360deg); transform: rotate(360deg);"><path d="M13 15h-2a5 5 0 1 1-4-8h10a5 5 0 1 1-4 8zm-5-4v-1a1 1 0 1 0-2 0v1H5a1 1 0 0 0 0 2h1v1a1 1 0 0 0 2 0v-1h1a1 1 0 0 0 0-2H8zm9 0a1 1 0 1 0 0-2a1 1 0 0 0 0 2zm-1 3a1 1 0 1 0 0-2a1 1 0 0 0 0 2zm3-1a1 1 0 1 0 0-2a1 1 0 0 0 0 2z" fill="black" fill-rule="evenodd"/><rect x="0" y="0" width="24" height="24" fill="rgba(0, 0, 0, 0)" /></svg>